<?xml version="1.0" encoding="UTF-8"?>
<svg width="242px" height="215px" viewBox="0 0 242 215" version="1.1" xmlns="http://www.w3.org/2000/svg" xmlns:xlink="http://www.w3.org/1999/xlink">
    <!-- Generator: Sketch 40.1 (33804) - http://www.bohemiancoding.com/sketch -->
    <title>Imported Layers Copy 16</title>
    <desc>Created with Sketch.</desc>
    <defs></defs>
    <g id="Page-1" stroke="none" stroke-width="1" fill="none" fill-rule="evenodd">
        <g id="Artboard-Copy-16" transform="translate(-518.000000, -104.000000)">
            <g id="Imported-Layers-Copy-16" transform="translate(518.000000, 104.000000)">
                <path d="M120.950959,25.7646154 C112.209438,25.7751846 105.650658,28.6253538 104.228356,31.9828462 L120.950959,38.5604308 L137.677082,31.9828462 C136.265342,28.6253538 129.706562,25.7751846 120.950959,25.7646154" id="Fill-2"></path>
                <path d="M120.950959,14.8677385 C127.544945,14.8677385 134.00163,16.4390308 138.976164,19.1976 C139.430315,17.6791538 140.067534,15.8401077 140.926548,13.9094615 L139.046575,14.1314154 L137.075068,14.3392769 L136.240699,12.5495538 L133.723507,7.26141538 L129.143274,9.63949231 L127.358356,10.5449231 L125.932534,9.14273846 L120.950959,4.23509231 L115.979945,9.14273846 L114.557644,10.5449231 L112.776247,9.63949231 L108.167849,7.26141538 L105.689384,12.5495538 L104.837411,14.3392769 L102.869425,14.1314154 L100.992973,13.9094615 C101.855507,15.8401077 102.485685,17.6791538 102.946877,19.1976 C107.935493,16.4390308 114.388658,14.8677385 120.950959,14.8677385" id="Fill-6"></path>
                <path d="M221.57174,75.9896 C222.427233,76.2855385 223.296808,76.4158923 224.159342,76.4158923 C227.891123,76.4158923 231.492644,74.0131538 232.731877,71.2686769 C232.731877,71.2686769 225.898493,70.8564769 218.544068,63.4227846 C216.206425,61.0165231 213.727959,60.2942923 211.605068,60.2942923 C208.302795,60.2942923 205.824329,62.0276462 205.824329,62.0276462 C214.706671,66.738 216.516233,74.2914769 221.57174,75.9896" id="Fill-7"></path>
                <path d="M223.976274,106.686169 C224.134699,106.696738 224.261438,106.696738 224.419863,106.696738 C233.724671,106.696738 236.875562,96.7722308 236.875562,96.7722308 L236.692493,96.7722308 C234.988548,96.7722308 221.156315,96.3706 211.376233,83.9940308 C204.940671,75.8557231 199.66337,68.6968308 189.249589,65.8818923 L188.221589,65.7022154 L187.999795,64.6629077 C187.71111,63.0810462 188.806,61.5907846 191.277425,59.9913077 C205.655342,50.6164 195.889342,38.6555538 195.889342,38.6555538 C195.889342,38.6555538 191.784384,48.2171846 182.599274,48.2171846 C182.381,48.2171846 182.148644,48.2066154 181.919808,48.2066154 C180.877726,48.1502462 179.867329,48.1114923 178.856932,47.8965846 L177.163548,47.5724615 C177.163548,47.5724615 179.782836,40.4734615 173.459932,33.9628154 C168.700151,29.0446 162.905329,28.2061077 159.560808,28.2061077 C157.877986,28.2061077 156.80774,28.4245385 156.80774,28.4245385 C159.983274,32.5571077 162.278671,39.4200615 158.613781,43.6512769 C155.441767,47.2906154 147.703603,47.4667692 147.703603,52.8852615 C147.703603,55.1858308 149.858178,57.8633692 153.72726,60.2696308 C165.359151,67.5659231 176.906548,77.2508615 181.712096,90.2263538 C187.71111,106.407846 180.951658,117.149708 171.301836,123.311569 C171.301836,123.311569 174.333027,126.087754 178.71611,126.440062 C179.610329,126.528138 180.483425,126.566892 181.296671,126.566892 C190.559233,126.566892 195.354219,122.240554 195.354219,122.240554 C195.354219,122.240554 194.562096,128.219215 189.742466,133.768062 C185.292493,138.894138 179.458945,141.913415 170.548438,142.040246 C170.548438,142.040246 170.266795,146.1552 174.209808,149.717031 C176.737562,151.968277 182.560548,152.697554 182.560548,152.697554 C182.560548,152.697554 171.65037,154.903 170.446342,170.954138 C169.791521,179.652615 167.559493,182.675415 167.559493,182.675415 L167.753123,182.675415 C193.076425,182.675415 192.432164,161.043723 192.432164,161.043723 C192.428644,161.043723 194.188918,167.448677 201.254658,169.118615 C202.110151,169.340569 203.021973,169.428646 203.888027,169.428646 C206.162301,169.428646 208.140849,168.893138 208.140849,168.893138 C208.137329,168.893138 204.437233,161.124754 208.109164,150.252538 C211.154438,141.229938 210.661562,134.546662 210.661562,134.546662 C210.661562,134.546662 214.069452,139.686831 222.532849,139.732631 L222.617342,139.732631 C229.661959,139.732631 232.731877,134.412785 232.731877,134.412785 C215.847329,127.433569 217.512548,104.907015 217.512548,104.907015 C217.512548,104.907015 219.705849,106.534677 223.976274,106.686169 M218.896123,130.227369 C212.024014,126.852262 207.686699,117.8966 206.637575,114.672985 C205.496918,132.429292 196.797644,144.749492 186.62326,156.611692 C181.342438,162.762985 179.501192,168.738123 179.501192,168.738123 C179.501192,168.738123 180.522151,161.966769 185.084781,156.453154 C194.576178,145.098277 203.599342,130.956646 204.268247,114.609569 C204.725918,103.198323 201.78626,93.9467231 197.188425,86.3192615 C199.758425,94.2638 199.392288,103.987492 190.664849,113.062938 C190.664849,113.062938 208.049315,92.3190615 183.743452,71.0502462 C174.019699,62.9542154 163.373562,57.9584923 157.895589,54.4178 C177.69163,60.8509385 187.355534,53.7660308 187.355534,53.7660308 C181.036151,59.2268 172.850877,59.1316769 167.777767,58.3460308 C169.154301,59.0118923 170.587164,59.7094615 172.125644,60.5373846 C188.816562,69.5635077 203.817616,84.4238462 206.373534,104.995092 L206.373534,104.840077 C210.256699,125.0414 218.896123,130.227369 218.896123,130.227369" id="Fill-9"></path>
                <path d="M102.228685,73.5974308 C102.64411,74.0413385 103.052493,74.524 103.446795,75.0066615 C103.541849,75.1229231 103.626342,75.2215692 103.721397,75.3554462 C104.084014,75.8345846 104.450151,76.3454308 104.802205,76.8668462 C104.883178,76.9690154 104.96063,77.0958462 105.045123,77.2156308 C105.464068,77.8533077 105.868932,78.5121231 106.266753,79.1920769 C109.921082,85.4737231 115.761671,89.2258 120.950959,89.2363692 C126.143767,89.2258 131.980836,85.4737231 135.645726,79.1920769 C136.050589,78.4945077 136.462493,77.8180769 136.884959,77.1839231 C136.948329,77.0958462 137.015219,77.0007231 137.071548,76.9091231 C137.434164,76.3665692 137.810863,75.8416308 138.205164,75.3343077 C138.289658,75.2215692 138.37063,75.1229231 138.448082,75.0278 C138.852945,74.524 139.27189,74.0342923 139.701397,73.5833385 C139.775329,73.5093538 139.838699,73.4424154 139.905589,73.3825231 C141.767959,71.4871077 143.985904,70.0391231 146.886836,69.2393846 L145.594795,68.4889692 L145.524384,68.4889692 L140.384384,65.5154923 L135.100041,62.5032615 L120.989685,70.1518615 L120.950959,70.1236769 L120.926315,70.1518615 L106.808918,62.5032615 L101.531616,65.5154923 L96.3810548,68.4889692 L96.3212055,68.4889692 L95.0186027,69.2393846 C97.9265753,70.0391231 100.133959,71.4694923 102.00337,73.3684308 C102.084342,73.4424154 102.140671,73.5269692 102.228685,73.5974308 M115.23711,72.9844154 L127.175288,72.9844154 L127.175288,77.0676615 C125.77411,75.3554462 123.038644,75.7007077 123.038644,75.7007077 L123.038644,81.5842462 C123.038644,81.5842462 123.14074,84.4766923 124.158178,85.7309077 L118.250699,85.7309077 C119.28574,84.4766923 119.377274,81.5842462 119.377274,81.5842462 L119.377274,75.7007077 C119.377274,75.7007077 116.65237,75.3554462 115.23711,77.0676615 L115.23711,72.9844154" id="Fill-11"></path>
                <path d="M119.729329,65.0715846 L119.729329,41.1851231 L104.464233,36.0308615 L108.49174,59.1739538 L119.729329,65.0715846 L119.729329,65.0715846 Z M116.455219,47.0580923 L116.455219,50.8947231 L115.715904,50.5565077 C115.680699,50.5318462 114.592849,50.2852308 112.702315,48.7914462 C109.572548,46.3781385 109.512699,44.1480308 109.512699,44.1480308 L116.455219,47.0580923 L116.455219,47.0580923 Z" id="Fill-12"></path>
                <polygon id="Fill-13" points="133.42074 59.1739538 137.434164 36.0308615 122.17963 41.1851231 122.17963 65.0715846"></polygon>
                <path d="M107.439096,144.442985 C107.009589,144.404231 106.654014,144.7354 106.618808,145.151123 C106.590644,145.584462 106.911014,145.950862 107.344041,145.964954 C107.766507,145.996662 108.129123,145.679585 108.17137,145.253292 C108.185452,144.841092 107.875644,144.4606 107.439096,144.442985" id="Fill-23" fill="#FFFFFF"></path>
                <path d="M158.465918,195.548738 L154.132123,193.892892 L155.32911,189.432677 L156.649315,184.574354 C156.649315,184.574354 148.971,188.724538 138.152356,191.838938 C135.082438,192.712662 132.758877,193.114292 132.758877,193.114292 L132.758877,196.422462 C132.758877,196.422462 126.971096,197.423015 121.126986,197.423015 L120.792534,197.423015 C114.937863,197.423015 109.160644,196.422462 109.160644,196.422462 L109.160644,193.114292 C109.160644,193.114292 106.833562,192.712662 103.767164,191.838938 C92.9520411,188.724538 85.2807671,184.574354 85.2807671,184.574354 L86.5763288,189.432677 L87.7979589,193.892892 L83.4500822,195.548738 L78.6304521,197.341985 C84.1541918,199.998385 91.8113836,203.866723 98.817274,205.776231 L97.166137,210.2752 C97.166137,210.2752 106.052,214.3056 120.855904,214.344354 L120.855904,214.3514 L121.056575,214.3514 L121.056575,214.344354 C135.878082,214.3056 144.756904,210.2752 144.756904,210.2752 L143.098726,205.776231 C150.104616,203.866723 157.77589,199.998385 163.274986,197.341985 L158.465918,195.548738 L158.465918,195.548738 Z M83.7704521,197.641446 L90.8995616,195.284508 L88.7907534,188.435646 C91.9346027,190.207754 98.9721781,192.874723 103.052493,194.111323 L99.6129178,203.524985 C93.311137,201.798677 88.0725616,199.790523 83.7704521,197.641446 L83.7704521,197.641446 Z M120.968562,211.983892 C112.688233,211.983892 103.242603,210.088477 100.454329,209.098492 L104.682507,197.701338 C108.192493,198.723031 115.49411,199.804615 120.792534,199.772908 L121.126986,199.772908 C126.42189,199.804615 133.712945,198.723031 137.240534,197.701338 L141.461671,209.098492 C138.680438,210.088477 129.231288,211.983892 120.968562,211.983892 L120.968562,211.983892 Z M142.299562,203.524985 L138.867027,194.111323 C142.950863,192.874723 149.981397,190.207754 153.128767,188.435646 L151.030521,195.284508 L158.149068,197.641446 C153.839918,199.790523 148.622466,201.798677 142.299562,203.524985 L142.299562,203.524985 Z" id="Fill-24" fill="#FFFFFF"></path>
                <path d="M120.950959,17.6263077 C129.769932,17.6263077 136.82863,20.5363692 140.725877,23.6402 C140.725877,23.6402 141.884137,16.6962154 145.837712,10.5695846 L138.733247,11.3763692 L135.015548,3.51286154 L127.875877,7.17686154 L120.950959,0.363230769 L114.047164,7.17686154 L106.88989,3.51286154 L103.179233,11.3763692 L96.0782877,10.5695846 C100.035384,16.6962154 101.186603,23.6402 101.186603,23.6402 C105.112014,20.5363692 112.146068,17.6263077 120.950959,17.6263077 M102.869425,14.1349385 L104.837411,14.3392769 L105.689384,12.5495538 L108.167849,7.26141538 L112.776247,9.63596923 L114.557644,10.5449231 L115.979945,9.14273846 L120.950959,4.23156923 L125.932534,9.14273846 L127.358356,10.5449231 L129.143274,9.63596923 L133.723507,7.26141538 L136.240699,12.5495538 L137.075068,14.3392769 L139.046575,14.1349385 L140.926548,13.9059385 C140.067534,15.8401077 139.430315,17.6791538 138.976164,19.1976 C134.00163,16.4390308 127.544945,14.8677385 120.950959,14.8677385 C114.388658,14.8677385 107.935493,16.4390308 102.946877,19.1976 C102.485685,17.6791538 101.855507,15.8401077 100.992973,13.9059385 L102.869425,14.1349385" id="Fill-25" fill="#FFFFFF"></path>
                <path d="M224.419863,109.733631 C235.826438,109.733631 239.642712,98.1779385 239.797616,97.6847077 L241.072055,93.6085077 L236.79811,93.7423846 L236.780507,93.7423846 C235.277233,93.7423846 222.687753,93.4112154 213.766685,82.1162308 L212.925274,81.0698769 C207.095247,73.6890308 201.567986,66.6640154 191.682288,63.4615385 C191.967452,63.2043538 192.379356,62.8872769 192.939123,62.5244 C198.18474,59.0929231 201.237055,54.9145538 202.004534,50.0738462 C203.124068,42.7846 198.455822,36.9715231 198.24811,36.7354769 L195.072575,32.8248615 L193.090507,37.4612308 C192.956726,37.7536462 189.622767,45.1802923 182.602795,45.1802923 L182.078233,45.1802923 C181.599438,45.1556308 181.138247,45.1344923 180.687616,45.0992615 C180.934055,41.7875692 180.328521,36.6614923 175.660274,31.8454462 C170.041479,26.0570308 163.158808,25.1903538 159.560808,25.1903538 C157.638589,25.1903538 156.36063,25.4264 156.219808,25.4404923 L151.424822,26.3882 L154.382082,30.2741538 C156.702123,33.2687692 158.807411,38.7929538 156.311342,41.6783538 C155.512178,42.5978769 153.871603,43.3377231 152.304959,44.0881385 C149.073096,45.5678308 144.661849,47.6358769 144.661849,52.8852615 C144.661849,56.2815077 147.309301,59.8362923 152.107808,62.8555692 C166.309699,71.7513385 175.068822,81.0346462 178.853411,91.2797538 C184.708082,107.038477 177.068493,116.029369 169.654219,120.767908 L166.323781,122.895846 L169.238795,125.562815 C169.629575,125.904554 173.188849,129.033046 178.455589,129.480477 C179.451904,129.543892 180.402452,129.600262 181.296671,129.600262 C184.669356,129.600262 187.542123,129.0718 189.879767,128.360138 C189.239027,129.480477 188.443384,130.625477 187.450589,131.774 C183.211849,136.664031 177.994397,138.894138 170.49563,139.013923 L167.707356,139.059723 L167.496123,141.842954 C167.467959,142.403123 167.260247,147.567954 172.16437,151.957708 C172.914247,152.637662 173.822548,153.197831 174.776616,153.652308 C171.446178,156.636354 168.066452,161.832892 167.41163,170.735708 C166.855384,178.165877 165.081027,180.913877 165.056384,180.942062 L161.979425,185.627754 L167.545411,185.701738 C176.744603,185.701738 183.785699,183.175692 188.668699,178.165877 C191.552027,175.202969 193.203164,171.856046 194.174836,168.893138 C195.776685,170.249523 197.839726,171.443846 200.539986,172.078 C201.560945,172.317569 202.676959,172.4444 203.888027,172.4444 C206.486192,172.4444 208.66189,171.8948 208.904808,171.838431 L212.457041,170.897769 L210.886877,167.596646 C210.774219,167.328892 207.806397,160.698462 210.999534,151.239 C212.369027,147.145185 213.076658,143.484708 213.41463,140.631015 C215.653699,141.793631 218.653205,142.751908 222.525808,142.762477 C231.323658,142.762477 235.206822,136.2166 235.379329,135.9418 L237.111438,132.936615 L233.900699,131.618985 C223.412986,127.282077 221.092945,115.634785 220.628233,109.335523 C221.57526,109.518723 222.659589,109.684308 223.881219,109.719538 L224.419863,109.733631 L224.419863,109.733631 Z M232.731877,134.412785 C232.731877,134.412785 229.661959,139.732631 222.617342,139.732631 L222.529329,139.732631 C214.072973,139.686831 210.661562,134.546662 210.661562,134.546662 C210.661562,134.546662 211.150918,141.229938 208.105644,150.252538 C204.437233,161.128277 208.137329,168.893138 208.137329,168.893138 C208.137329,168.893138 206.162301,169.428646 203.888027,169.428646 C203.018452,169.428646 202.110151,169.340569 201.254658,169.118615 C194.192438,167.448677 192.428644,161.043723 192.428644,161.043723 C192.428644,161.043723 193.079945,182.675415 167.753123,182.675415 L167.555973,182.675415 C167.555973,182.675415 169.788,179.652615 170.446342,170.954138 C171.65037,154.903 182.560548,152.697554 182.560548,152.697554 C182.560548,152.697554 176.737562,151.968277 174.213329,149.717031 C170.266795,146.1552 170.544918,142.036723 170.544918,142.036723 C179.455425,141.913415 185.296014,138.894138 189.742466,133.768062 C194.562096,128.219215 195.350699,122.240554 195.350699,122.240554 C195.350699,122.240554 190.559233,126.566892 181.296671,126.566892 C180.483425,126.566892 179.613849,126.528138 178.71963,126.440062 C174.333027,126.087754 171.305356,123.311569 171.305356,123.311569 C180.951658,117.153231 187.71463,106.407846 181.715616,90.2228308 C176.906548,77.2543846 165.359151,67.5659231 153.72726,60.2696308 C149.861699,57.8633692 147.703603,55.1858308 147.703603,52.8852615 C147.703603,47.4667692 155.445288,47.2906154 158.613781,43.6512769 C162.278671,39.4200615 159.979753,32.5571077 156.80774,28.4245385 C156.80774,28.4245385 157.874466,28.2061077 159.560808,28.2061077 C162.908849,28.2061077 168.700151,29.0446 173.459932,33.9628154 C179.782836,40.4734615 177.163548,47.5689385 177.163548,47.5689385 L178.853411,47.9001077 C179.867329,48.1114923 180.874205,48.1502462 181.919808,48.2066154 C182.145123,48.2066154 182.377479,48.2171846 182.602795,48.2171846 C191.787904,48.2171846 195.892863,38.6555538 195.892863,38.6555538 C195.892863,38.6555538 205.655342,50.6164 191.277425,59.9913077 C188.806,61.5907846 187.71463,63.0810462 187.999795,64.6629077 L188.22511,65.7022154 L189.249589,65.8818923 C199.66689,68.6968308 204.940671,75.8557231 211.376233,83.9940308 C221.156315,96.3706 234.985027,96.7722308 236.692493,96.7722308 L236.879082,96.7722308 C236.879082,96.7722308 233.721151,106.696738 224.419863,106.696738 C224.264959,106.696738 224.131178,106.696738 223.979795,106.686169 C219.705849,106.534677 217.512548,104.903492 217.512548,104.903492 C217.512548,104.903492 215.847329,127.433569 232.731877,134.412785 L232.731877,134.412785 Z" id="Fill-26" fill="#FFFFFF"></path>
                <path d="M204.377384,64.7157538 C208.630205,66.9740462 211.112192,70.0003692 213.28437,72.6814308 C215.421342,75.2990769 217.445658,77.8180769 220.617671,78.8644308 C221.744247,79.2484462 222.941233,79.4351692 224.159342,79.4351692 C228.915603,79.4351692 233.696507,76.5321538 235.509589,72.5158462 L237.333233,68.4889692 L232.921986,68.2282615 C232.714274,68.2247385 227.039151,67.7068462 220.726808,61.2842769 C218.128644,58.6490154 214.988315,57.2644462 211.605068,57.2644462 C207.468425,57.2644462 204.405548,59.3219231 204.067575,59.5333077 L200.011904,62.3764308 L204.377384,64.7157538 L204.377384,64.7157538 Z M211.605068,60.2942923 C213.727959,60.2942923 216.202904,61.0165231 218.547589,63.4263077 C225.898493,70.8564769 232.735397,71.2722 232.735397,71.2722 C231.492644,74.0131538 227.891123,76.4158923 224.159342,76.4158923 C223.296808,76.4158923 222.430753,76.2855385 221.57174,75.9896 C216.516233,74.2914769 214.706671,66.738 205.824329,62.0311692 C205.824329,62.0311692 208.302795,60.2942923 211.605068,60.2942923 L211.605068,60.2942923 Z" id="Fill-27" fill="#FFFFFF"></path>
                <path d="M206.377055,104.840077 L206.377055,104.995092 C203.817616,84.4238462 188.816562,69.5670308 172.125644,60.5373846 C170.583644,59.7094615 169.157822,59.0118923 167.774247,58.3460308 C172.854397,59.1316769 181.039671,59.2232769 187.355534,53.7660308 C187.355534,53.7660308 177.69163,60.8509385 157.895589,54.4178 C163.370041,57.9584923 174.019699,62.9542154 183.746973,71.0502462 C208.045795,92.3190615 190.661329,113.066462 190.661329,113.066462 C199.395808,103.987492 199.758425,94.2638 197.188425,86.3192615 C201.78626,93.9467231 204.725918,103.1948 204.268247,114.609569 C203.599342,130.956646 194.576178,145.094754 185.084781,156.453154 C180.522151,161.966769 179.504712,168.738123 179.504712,168.738123 C179.504712,168.738123 181.345959,162.762985 186.626781,156.611692 C196.797644,144.749492 205.496918,132.429292 206.637575,114.672985 C207.686699,117.8966 212.024014,126.852262 218.896123,130.227369 C218.896123,130.227369 210.256699,125.0414 206.377055,104.840077" id="Fill-28" fill="#FFFFFF"></path>
                <path d="M76.8560959,180.942062 C76.8490548,180.913877 75.0782192,178.165877 74.5149315,170.735708 C73.8495479,161.832892 70.4698219,156.636354 67.1323425,153.652308 C68.0969726,153.197831 68.9911918,152.637662 69.744589,151.957708 C74.6487123,147.567954 74.4374795,142.403123 74.4057945,141.842954 L74.2156849,139.0562 L71.4098082,139.013923 C63.9321644,138.894138 58.7041507,136.664031 54.465411,131.774 C53.4831781,130.625477 52.6875342,129.480477 52.0397534,128.360138 C54.3703562,129.0718 57.2290411,129.600262 60.6087671,129.600262 C61.5170685,129.600262 62.4605753,129.543892 63.4568904,129.480477 C68.7201096,129.033046 72.2864247,125.908077 72.680726,125.562815 L75.5957397,122.895846 L72.2688219,120.767908 C64.8263836,116.025846 57.2184795,107.038477 63.062589,91.2797538 C66.8471781,81.0346462 75.5957397,71.7513385 89.8187534,62.8555692 C94.6172603,59.8362923 97.243589,56.2815077 97.243589,52.8852615 C97.243589,47.6358769 92.8429041,45.5678308 89.6145616,44.0881385 C88.0408767,43.3377231 86.4038219,42.5978769 85.6046575,41.6783538 C83.1050685,38.7929538 85.2103562,33.2687692 87.5303973,30.2741538 L90.5087808,26.3882 L85.6891507,25.4404923 C85.5483288,25.4264 84.2844521,25.1903538 82.3551918,25.1903538 C78.7536712,25.1903538 71.8850822,26.0570308 66.2768493,31.8454462 C61.5980411,36.6614923 60.9854658,41.7875692 61.224863,45.0992615 C60.7742329,45.1344923 60.3165616,45.1521077 59.8377671,45.1802923 L59.3237671,45.1802923 C52.2861918,45.1802923 48.959274,37.7536462 48.8290137,37.4612308 L46.8539863,32.8213385 L43.6467671,36.7354769 C43.4672192,36.9715231 38.7848904,42.7846 39.9220274,50.0738462 C40.6789452,54.9145538 43.7347808,59.0929231 48.9803973,62.5244 C49.550726,62.8872769 49.9485479,63.2043538 50.2372329,63.4615385 C40.3374521,66.6640154 34.8137123,73.6890308 28.9872055,81.0698769 L28.1457945,82.1162308 C19.2352877,93.4076923 6.62468493,93.7423846 5.11436986,93.7423846 L0.815780822,93.6085077 L2.12542466,97.6847077 C2.27680822,98.1779385 6.079,109.733631 17.4926164,109.733631 L18.0453425,109.719538 C19.2528904,109.684308 20.3336986,109.518723 21.2983288,109.335523 C20.8230548,115.634785 18.4959726,127.282077 8.00826027,131.618985 L4.80456164,132.936615 L6.53667123,135.9418 C6.70565753,136.2166 10.595863,142.762477 19.4113151,142.762477 C23.2663151,142.751908 26.2587808,141.793631 28.5013699,140.634538 C28.842863,143.484708 29.5434521,147.145185 30.9199863,151.239 C34.1131233,160.698462 31.1417808,167.328892 31.0291233,167.596646 L29.4519178,170.897769 L33.0147123,171.838431 C33.250589,171.8948 35.4368493,172.4444 38.0279726,172.4444 C39.2390411,172.4444 40.3585753,172.317569 41.3689726,172.078 C44.0692329,171.443846 46.1533973,170.249523 47.7411644,168.893138 C48.7093151,171.856046 50.3639726,175.202969 53.2437808,178.165877 C58.1373425,183.175692 65.1713973,185.701738 74.3670685,185.701738 L79.9400959,185.627754 L76.8560959,180.942062 L76.8560959,180.942062 Z M74.1628767,182.675415 C48.8360548,182.675415 49.4838356,161.043723 49.4838356,161.043723 C49.4838356,161.043723 47.7165205,167.448677 40.6578219,169.118615 C39.8128904,169.340569 38.9081096,169.425123 38.0279726,169.425123 C35.7536986,169.425123 33.7892329,168.893138 33.7892329,168.893138 C33.7892329,168.893138 37.471726,161.128277 33.7997945,150.252538 C30.7650822,141.233462 31.2579589,134.546662 31.2579589,134.546662 C31.2579589,134.546662 27.8500685,139.686831 19.3866712,139.732631 L19.3021781,139.732631 C12.2610822,139.732631 9.18764384,134.412785 9.18764384,134.412785 C26.0616301,127.430046 24.4104932,104.903492 24.4104932,104.903492 C24.4104932,104.903492 22.2136712,106.534677 17.9362055,106.686169 C17.7813014,106.696738 17.6404795,106.696738 17.4926164,106.696738 C8.18428767,106.696738 5.02987671,96.7722308 5.02987671,96.7722308 L5.2199863,96.7722308 C6.9380137,96.7722308 20.7561644,96.3706 30.5292055,83.9940308 C36.9682877,75.8557231 42.245589,68.7003538 52.6488082,65.8818923 L53.694411,65.7022154 L53.919726,64.6629077 C54.2048904,63.0810462 53.1170411,61.5907846 50.6456164,59.9877846 C36.2712192,50.6164 46.0336986,38.6555538 46.0336986,38.6555538 C46.0336986,38.6555538 50.1140137,48.2171846 59.3237671,48.2171846 C59.5490822,48.2171846 59.7603151,48.2066154 59.9961918,48.2066154 C61.0277123,48.1502462 62.0521918,48.1114923 63.062589,47.9001077 L64.7559726,47.5689385 C64.7559726,47.5689385 62.1261233,40.4734615 68.4631096,33.9628154 C73.2228904,29.0446 79.0106712,28.2096308 82.3551918,28.2096308 C84.0520959,28.2096308 85.1047397,28.4245385 85.1047397,28.4245385 C81.9397671,32.5571077 79.6408493,39.4165385 83.3057397,43.6512769 C86.4742329,47.2906154 94.2053562,47.4667692 94.2053562,52.8852615 C94.2053562,55.1858308 92.0507808,57.8633692 88.1852192,60.2696308 C76.5498082,67.5659231 65.0059315,77.2543846 60.2003836,90.2228308 C54.2048904,106.407846 60.967863,117.153231 70.6282466,123.311569 C70.6282466,123.311569 67.5900137,126.087754 63.1998904,126.440062 C62.3056712,126.528138 61.443137,126.566892 60.6087671,126.566892 C51.3567671,126.566892 46.5688219,122.240554 46.5688219,122.240554 C46.5688219,122.240554 47.3644658,128.219215 52.152411,133.771585 C56.6305479,138.894138 62.4605753,141.913415 71.3710822,142.036723 C71.3710822,142.036723 71.652726,146.1552 67.7132329,149.717031 C65.1854795,151.968277 59.3554521,152.697554 59.3554521,152.697554 C59.3554521,152.697554 70.2761918,154.903 71.4766986,170.950615 C72.1315205,179.652615 74.3459452,182.675415 74.3459452,182.675415 L74.1628767,182.675415 L74.1628767,182.675415 Z" id="Fill-29" fill="#FFFFFF"></path>
                <path d="M17.753137,79.4316462 C18.9747671,79.4316462 20.1682329,79.2519692 21.2983288,78.8679538 C24.4809041,77.8145538 26.5016986,75.3026 28.6386712,72.6814308 C30.821411,70.0003692 33.2752329,66.9740462 37.5315753,64.7157538 L41.911137,62.3799538 L37.8449041,59.5333077 C37.503411,59.3184 34.4546164,57.2679692 30.3214932,57.2679692 C26.9312055,57.2679692 23.7838356,58.6454923 21.1891918,61.2842769 C14.8698082,67.7068462 9.20876712,68.2282615 9.00457534,68.2317846 L4.59684932,68.4889692 L6.40641096,72.5158462 C8.22653425,76.5321538 13.0039178,79.4316462 17.753137,79.4316462 M23.3613699,63.4263077 C25.7130959,61.0165231 28.1880411,60.2942923 30.3214932,60.2942923 C33.6061644,60.2942923 36.0916712,62.0311692 36.0916712,62.0311692 C27.2198904,66.738 25.392726,74.2914769 20.323137,75.9931231 C19.4852466,76.2890615 18.6191918,76.4158923 17.753137,76.4158923 C14.0283973,76.4158923 10.4198356,74.0131538 9.18764384,71.2722 C9.18764384,71.2722 16.0175068,70.8564769 23.3613699,63.4263077" id="Fill-30" fill="#FFFFFF"></path>
                <path d="M37.6583151,114.609569 C37.1830411,103.198323 40.1226986,93.9467231 44.7275753,86.3192615 C42.1610959,94.2638 42.5096301,103.983969 51.2546712,113.066462 C51.2546712,113.066462 33.8666849,92.3190615 58.179589,71.0502462 C67.8998219,62.9542154 78.5389178,57.9584923 84.0168904,54.4178 C64.2278904,60.8509385 54.5604658,53.7695538 54.5604658,53.7695538 C60.8763288,59.2268 69.0616027,59.1316769 74.1382329,58.3425077 C72.7652192,59.0118923 71.3217945,59.7094615 69.7903562,60.5373846 C53.0959178,69.5635077 38.1019041,84.4238462 35.5319041,104.995092 L35.5319041,104.836554 C31.6557808,125.0414 23.0233973,130.227369 23.0233973,130.227369 C29.8919863,126.852262 34.2152192,117.8966 35.267863,114.672985 C36.4155616,132.429292 45.1148356,144.749492 55.2892192,156.611692 C60.5665205,162.762985 62.4253699,168.738123 62.4253699,168.738123 C62.4253699,168.738123 61.3938493,161.963246 56.8100959,156.453154 C47.3363014,145.098277 38.3201781,130.956646 37.6583151,114.609569" id="Fill-31" fill="#FFFFFF"></path>
                <path d="M115.23711,72.9844154 L115.23711,77.0676615 C116.65237,75.3554462 119.377274,75.7007077 119.377274,75.7007077 L119.377274,81.5842462 C119.377274,81.5842462 119.28574,84.4766923 118.250699,85.7309077 L124.158178,85.7309077 C123.14074,84.4766923 123.038644,81.5842462 123.038644,81.5842462 L123.038644,75.7007077 C123.038644,75.7007077 125.77411,75.3554462 127.175288,77.0676615 L127.175288,72.9844154 L115.23711,72.9844154" id="Fill-32" fill="#FFFFFF"></path>
                <path d="M112.698795,48.7914462 C114.592849,50.2852308 115.680699,50.5318462 115.715904,50.5565077 L116.455219,50.8947231 L116.455219,47.0545692 L109.512699,44.1515538 C109.512699,44.1515538 109.572548,46.3746154 112.698795,48.7914462" id="Fill-33" fill="#FFFFFF"></path>
                <path d="M129.210164,48.7914462 C132.343452,46.3746154 132.403301,44.1515538 132.403301,44.1515538 L125.460781,47.0545692 L125.460781,50.8947231 L126.196575,50.5565077 C126.231781,50.5318462 127.323151,50.2852308 129.210164,48.7914462" id="Fill-34" fill="#FFFFFF"></path>
                <path d="M141.71163,33.1454615 C141.71163,27.3182923 131.861137,22.0724308 120.986164,22.0724308 L120.922795,22.0724308 C110.051342,22.0724308 100.200849,27.3182923 100.200849,33.1454615 L100.415603,34.5793538 L104.756438,59.4029538 L100.398,61.9254769 L89.1146438,68.4889692 L89.1533699,68.4889692 C89.1533699,68.4889692 86.6150548,69.7854615 85.4391918,70.5852 C81.1406027,73.5551538 80.2287808,77.8955846 82.7248493,79.6853077 C83.3374247,76.1481385 86.1468219,72.4559538 91.3994795,72.4559538 C95.1840685,72.4559538 98.0709178,74.4006923 100.398,77.3178 C100.996493,78.0506 101.566822,78.8397692 102.094904,79.6853077 C102.749726,80.7528 103.404548,81.6899385 104.055849,82.5918462 L74.9902055,82.5918462 C77.1271781,86.8688615 79.1550137,91.3995385 79.1550137,96.3212769 L79.1550137,160.391954 C79.1550137,175.904062 91.1283973,183.302523 104.084014,183.302523 C114.096452,183.302523 115.444822,182.848046 120.968562,188.329954 C126.464137,182.848046 127.816027,183.302523 137.835507,183.302523 C150.794644,183.302523 162.753945,175.904062 162.753945,160.391954 L162.753945,96.3212769 C162.753945,91.3995385 164.781781,86.8688615 166.929315,82.5918462 L137.85311,82.5918462 C138.50089,81.6899385 139.155712,80.7528 139.810534,79.6853077 C140.345658,78.8397692 140.912466,78.0506 141.500397,77.3178 C143.848603,74.3901231 146.728411,72.4559538 150.513,72.4559538 C155.762137,72.4559538 158.564493,76.1481385 159.191151,79.6853077 C161.683699,77.8955846 160.782438,73.5551538 156.462726,70.5852 C155.304466,69.7854615 152.76263,68.4889692 152.76263,68.4889692 L152.801356,68.4889692 L141.500397,61.9254769 L137.156041,59.4029538 L141.500397,34.5793538 L141.71163,33.1454615 L141.71163,33.1454615 Z M104.464233,36.0273385 L119.729329,41.1851231 L119.729329,65.0751077 L108.49174,59.1774769 L104.464233,36.0273385 L104.464233,36.0273385 Z M107.629205,86.7666923 C110.135836,89.2469385 112.589658,90.7900462 114.923781,91.6391077 C114.621014,92.8369538 114.223192,95.3101538 115.346247,97.7727846 C116.26511,99.7598 117.930329,101.292338 120.338384,102.310508 C120.598904,104.766092 122.162027,108.458277 126.471178,110.085938 C124.580644,111.984877 122.742918,113.7746 122.000082,114.496831 L104.502959,114.218508 C104.108658,114.021215 103.429192,113.577308 103.126425,112.946677 C103.09474,112.8586 103.03489,112.8128 102.999685,112.724723 L105.854849,113.186246 C105.914699,113.193292 105.974548,113.193292 106.034397,113.193292 C106.590644,113.193292 107.069438,112.8128 107.160973,112.249108 C107.252507,111.618477 106.830041,111.040692 106.213945,110.942046 L102.703959,110.388923 L106.597685,96.9871385 L102.908151,89.2469385 L96.9936301,95.4757385 L96.6310137,109.413031 L92.6563151,108.785923 C92.0402192,108.666138 91.4522877,109.113569 91.3466712,109.733631 C91.2516164,110.346646 91.6705616,110.927954 92.2936986,111.037169 L93.9624384,111.290831 C93.3674658,111.629046 92.9696438,111.8968 92.9238767,111.932031 L92.5894247,112.168077 L92.4943699,112.5838 C91.5297397,116.497938 93.716,120.207738 96.0782877,121.870631 L95.9937945,122.363862 C95.8952192,122.966308 96.0360411,123.551138 96.3986575,124.040846 C96.7436712,124.544646 97.2647123,124.844108 97.8632055,124.9498 C97.9829041,124.970938 98.1131644,124.981508 98.2293425,124.981508 C99.2538219,124.981508 100.148041,124.276892 100.398,123.244631 C101.278137,123.350323 102.080822,123.371462 102.633548,123.371462 L103.101781,123.371462 L126.059274,127.500508 L126.446534,127.243323 C128.273699,125.971492 135.251425,120.912354 137.53626,119.231846 C138.166438,119.770877 138.867027,120.260585 139.715479,120.665738 C138.976164,123.138938 138.930397,126.943862 141.855973,129.945523 L83.3515068,129.945523 L83.3515068,96.3212769 C83.3515068,93.0659538 82.3974384,89.7894923 81.2638219,86.7666923 L107.629205,86.7666923 L107.629205,86.7666923 Z M135.99426,117.526677 C133.67774,119.231846 127.70337,123.5758 125.531192,125.083677 L104.675466,121.352738 C104.721233,121.166015 104.770521,120.979292 104.816288,120.796092 C105.09089,119.718031 105.372534,118.245385 105.386616,116.515554 L122.918945,116.793877 L123.253397,116.455662 C123.520959,116.191431 129.076384,110.8434 131.906904,107.771277 C132.582849,108.613292 133.42074,109.413031 134.529712,110.117646 C134.149493,112.164554 134.311438,115.074615 135.99426,117.526677 L135.99426,117.526677 Z M101.066904,113.933138 C101.563301,114.961877 102.450479,115.648877 103.073616,116.039938 C103.048973,117.008785 102.960959,118.502569 102.703959,119.827246 C102.64411,120.123185 102.566658,120.394462 102.485685,120.665738 C102.443438,120.838369 102.39063,120.979292 102.355425,121.092031 C101.433041,121.092031 99.627,120.979292 98.1413288,120.440262 C96.504274,119.837815 94.0610137,116.846723 94.6243014,113.542077 C95.3319315,113.108738 96.9760274,112.192738 98.5145068,112.192738 C99.6938904,112.192738 100.503616,112.745862 101.066904,113.933138 L101.066904,113.933138 Z M98.8982466,109.786477 L99.2538219,96.4023077 L102.267411,93.2244923 L104.161466,97.1738615 L100.426164,110.019 L98.8982466,109.786477 L98.8982466,109.786477 Z M135.804151,179.159385 C134.663493,179.159385 133.610849,179.177 132.667342,179.212231 L135.149329,171.514308 C135.536589,170.450338 133.575644,169.079862 132.765918,167.874969 C133.987548,168.643 137.156041,170.316462 138.680438,170.985846 C138.529055,171.235985 135.804151,179.159385 135.804151,179.159385 L135.804151,179.159385 Z M143.602164,170.415108 L141.979192,178.842308 C140.94063,178.986754 139.84926,179.060738 138.722685,179.106538 L140.430151,171.006985 C140.94063,168.600723 134.45226,167.850308 131.245041,163.115292 C129.681918,164.869785 126.735219,165.394723 123.770918,165.394723 C121.067137,165.394723 118.370397,164.964908 116.722781,164.644308 C116.307356,164.577369 115.909534,164.531569 115.518753,164.531569 C114.571726,164.531569 113.709192,164.823985 113.107178,165.821015 L112.638945,166.613708 L103.795329,164.538615 L101.594986,168.167385 C101.285178,168.755738 101.260534,169.248969 101.763973,169.802092 L102.358945,170.450338 C101.947041,171.732738 100.109315,173.673954 100.109315,173.673954 L98.7961507,172.039246 C97.7540685,170.880154 97.9230548,168.755738 99.0073836,166.793385 L102.51737,160.895754 L110.009096,161.973815 L108.847315,159.331508 C107.280671,155.836615 109.664082,151.394015 109.921082,148.832738 C109.833068,149.607815 109.118397,149.780446 108.291068,149.780446 C107.534151,149.780446 106.689219,149.636 106.129452,149.636 C105.907658,149.636 105.717548,149.657138 105.618973,149.734646 L103.587616,150.960677 L101.989288,149.551446 C101.795658,149.280169 101.735808,148.646015 102.204041,148.1704 L105.907658,144.030785 L101.531616,138.936415 L107.66089,142.005015 L109.533822,139.7432 C110.047822,140.247 109.822507,141.561108 109.822507,141.561108 C111.734164,141.603385 117.103,144.559246 117.388164,151.460954 C117.402247,151.668815 117.402247,151.904862 117.402247,152.133862 C117.402247,152.133862 117.451534,152.218415 117.546589,152.359338 C117.923288,152.880754 118.972411,154.208954 120.299658,154.332262 L128.770096,155.170754 L128.805301,155.170754 C129.734726,155.170754 131.583014,154.082123 133.955863,154.082123 C135.251425,154.082123 136.687808,154.409769 138.219247,155.371569 C138.219247,155.371569 138.993767,154.7656 140.240041,154.702185 C140.335096,154.691615 140.444233,154.691615 140.535767,154.691615 C144.330918,154.691615 145.911644,158.112523 147.953562,160.952123 C149.485,163.115292 151.537479,166.328338 151.537479,166.328338 C150.780562,167.2232 150.076452,167.719954 148.897068,167.719954 C148.573178,167.719954 148.207041,167.695292 147.802178,167.614262 C143.728904,166.867369 143.140973,158.5212 140.81389,157.862385 C140.690671,157.827154 140.563932,157.813062 140.444233,157.813062 C139.694356,157.813062 139.370466,158.478923 139.370466,158.478923 C140.430151,161.322046 139.810534,162.470569 140.954712,164.665446 C141.810205,166.289585 143.327562,167.628354 143.954219,168.258985 C143.954219,168.258985 143.781712,169.492062 143.602164,170.415108 L143.602164,170.415108 Z M98.0709178,162.449431 L98.4616986,163.425323 C98.2011781,164.277908 95.2685616,165.479277 95.2685616,165.479277 L94.634863,164.098231 C93.9624384,162.625585 94.1067808,160.138292 96.1522192,158.619846 L100.908479,155.734446 L105.953425,156.801938 C105.86189,158.394369 106.815959,159.588692 106.815959,159.588692 L101.531616,158.574046 L98.3666438,160.751308 C97.8315205,161.124754 97.7927945,161.811754 98.0709178,162.449431 L98.0709178,162.449431 Z M144.397808,178.380785 L145.851795,170.837877 C145.929247,170.393969 146.020781,169.876077 146.084151,169.442738 C146.496055,169.615369 146.929082,169.752769 147.397315,169.840846 C147.943,169.943015 148.439397,169.995862 148.897068,169.995862 C151.115014,169.995862 152.410575,168.833246 153.266068,167.843262 L154.382082,166.546769 L153.47026,165.130492 C153.389288,164.989569 151.372014,161.811754 149.822973,159.641538 C149.516685,159.211723 149.228,158.788954 148.932274,158.327431 C147.168479,155.699215 144.961096,152.408662 140.535767,152.408662 L140.137945,152.415708 C139.409192,152.461508 138.782534,152.605954 138.275575,152.7962 C136.884959,152.147954 135.448575,151.813262 133.955863,151.813262 C132.121658,151.813262 130.586699,152.317062 129.558699,152.662323 C129.262973,152.7504 129.002452,152.842 128.79474,152.880754 L120.517932,152.070446 C120.412315,152.049308 120.077863,151.852015 119.665959,151.365831 L119.665959,151.327077 L121.457918,150.611892 C120.950959,144.671985 115.226548,141.018554 112.033411,139.781954 C111.89611,139.186554 111.607425,138.594677 111.107507,138.108492 L109.32611,136.427985 L107.762986,138.295215 L106.995507,139.246446 L95.405863,134.504385 L102.946877,143.932138 L99.9720137,148.420538 C98.8841644,149.569062 100.084671,150.724631 100.084671,150.724631 L103.15811,152.834954 L106.344205,151.6512 C106.453342,151.6512 106.551918,151.675862 106.657534,151.689954 C106.50263,152.172615 106.305479,154.060985 106.171699,154.589446 L100.640918,153.507862 L94.8320137,156.773754 C91.846589,158.958062 91.4382055,162.572738 92.5471781,165.045938 L93.1914384,166.451646 L94.1067808,168.431615 L96.1416575,167.593123 C96.1698219,167.586077 96.1979863,167.575508 96.215589,167.561415 C95.4833151,169.886646 95.7825616,172.099138 97.0816438,173.5436 L98.3173562,175.090231 L99.9614521,177.158277 L101.763973,175.227631 C102.292055,174.702692 104.013603,172.782615 104.541685,171.140862 L104.932466,169.886646 L104.055849,168.921323 L103.907986,168.748692 L104.900781,167.121031 L112.114384,168.815631 L113.740877,169.185554 L114.603411,167.765754 L115.075164,166.9942 C115.163178,166.828615 115.184301,166.803954 115.518753,166.803954 C115.775753,166.803954 116.029233,166.828615 116.303836,166.892031 C119.02874,167.402877 121.542411,167.660062 123.770918,167.660062 C125.932534,167.660062 127.224575,167.575508 128.763055,167.064662 C128.763055,167.064662 132.639178,171.450892 132.772959,171.616477 L130.40011,178.912769 L130.294493,179.353154 C125.798753,179.716031 123.612493,180.695446 120.968562,183.327185 C117.127644,179.532831 114.40626,179.1312 104.084014,179.1312 C91.7268904,179.1312 83.3515068,171.919462 83.3515068,160.391954 L83.3515068,132.217908 L158.564493,132.217908 L158.582096,160.391954 C158.582096,169.735154 153.072438,176.256369 144.397808,178.380785 L144.397808,178.380785 Z M160.659219,86.7666923 C159.508,89.7894923 158.557452,93.0659538 158.557452,96.3212769 L158.564493,117.347 C154.153247,116.607154 153.635726,111.879185 153.618123,111.674846 L153.537151,110.709523 L152.586603,110.628492 C150.667904,110.441769 149.396986,109.638508 148.32674,108.5992 C146.165123,106.4466 146.158082,102.955231 146.165123,102.923523 C146.133438,103.1032 143.781712,106.383185 146.510137,109.962631 C147.657836,111.470508 149.319534,112.4006 151.470589,112.763477 C151.977548,115.388169 153.938493,119.094446 158.564493,119.658138 L158.564493,129.945523 L145.552548,129.945523 C139.550014,126.619738 142.09537,120.767908 142.211548,120.517769 L142.718507,119.408 L141.570808,118.974662 C135.071877,116.575446 136.860315,110.117646 136.948329,109.839323 L137.208849,108.898662 L136.325192,108.479415 C130.959877,106.002692 131.68511,99.3335077 131.755521,99.0516615 C130.104384,100.386908 129.509411,103.1032 130.646548,105.766646 C130.033973,106.471262 129.206644,107.3168 128.301863,108.246892 C122.742918,106.834138 122.570411,101.750338 122.570411,101.517815 L122.559849,100.735692 L121.827575,100.453846 C119.658918,99.6541077 118.169726,98.4527385 117.433932,96.8391692 C116.610123,95.0564923 116.902329,93.1857385 117.127644,92.2838308 C117.764863,92.4282769 118.398562,92.5269231 119.000575,92.5762462 C119.627233,92.6431846 120.267973,92.6819385 120.912233,92.6819385 L121.000247,92.6819385 C121.644507,92.6819385 122.278205,92.6431846 122.908384,92.5762462 C126.372603,92.2345077 130.245205,90.7548154 134.286795,86.7666923 L160.659219,86.7666923 L160.659219,86.7666923 Z M140.384384,65.5154923 L145.524384,68.4889692 L145.594795,68.4889692 L146.886836,69.2393846 C143.985904,70.0391231 141.767959,71.4871077 139.905589,73.3825231 C139.835178,73.4424154 139.775329,73.5093538 139.701397,73.5833385 C139.275411,74.0342923 138.852945,74.524 138.444562,75.0278 C138.37063,75.1229231 138.289658,75.2215692 138.205164,75.3343077 C137.810863,75.8416308 137.434164,76.3665692 137.075068,76.9091231 C137.015219,77.0007231 136.948329,77.0958462 136.884959,77.1839231 C136.458973,77.8180769 136.050589,78.4945077 135.645726,79.1920769 C131.984356,85.4737231 126.143767,89.2258 120.950959,89.2363692 C115.761671,89.2258 109.921082,85.4737231 106.266753,79.1920769 C105.868932,78.5121231 105.464068,77.8533077 105.041603,77.2156308 C104.95711,77.0958462 104.883178,76.9690154 104.805726,76.8668462 C104.450151,76.3454308 104.084014,75.8345846 103.721397,75.3554462 C103.626342,75.2215692 103.538329,75.1229231 103.446795,75.0066615 C103.048973,74.524 102.64411,74.0413385 102.228685,73.5974308 C102.140671,73.5269692 102.080822,73.4424154 102.00689,73.3684308 C100.133959,71.4694923 97.9230548,70.0391231 95.0186027,69.2393846 L96.324726,68.4889692 L96.3810548,68.4889692 L101.531616,65.5154923 L106.812438,62.5032615 L120.922795,70.1518615 L120.950959,70.1236769 L120.993205,70.1518615 L135.100041,62.5032615 L140.384384,65.5154923 L140.384384,65.5154923 Z M133.42074,59.1774769 L122.17963,65.0751077 L122.17963,41.1851231 L137.434164,36.0273385 L133.42074,59.1774769 L133.42074,59.1774769 Z M120.950959,38.5604308 L104.228356,31.9828462 C105.650658,28.6253538 112.209438,25.7751846 120.950959,25.7646154 C129.706562,25.7751846 136.265342,28.6253538 137.677082,31.9828462 L120.950959,38.5604308 L120.950959,38.5604308 Z" id="Fill-35" fill="#FFFFFF"></path>
            </g>
        </g>
    </g>
</svg>