<?xml version="1.0" encoding="UTF-8"?>
<svg width="11px" height="11px" viewBox="0 0 11 11" version="1.1" xmlns="http://www.w3.org/2000/svg" xmlns:xlink="http://www.w3.org/1999/xlink">
    <!-- Generator: Sketch 40.1 (33804) - http://www.bohemiancoding.com/sketch -->
    <title>Imported Layers Copy 16</title>
    <desc>Created with Sketch.</desc>
    <defs></defs>
    <g id="Page-1" stroke="none" stroke-width="1" fill="none" fill-rule="evenodd" stroke-linecap="round" opacity="0.699999988" stroke-linejoin="round">
        <g id="Artboard-Copy-16" transform="translate(-532.000000, -531.000000)" stroke="#EEF2F7" stroke-width="1.5">
            <g id="Group-5" transform="translate(533.000000, 527.000000)">
                <path d="M9.00001867,13.9950254 L6.28901867,11.2840254 C5.56901867,12.0040254 4.70101867,12.3655254 3.68451867,12.3685254 C2.66451867,12.3655254 1.79501867,12.0040254 1.07501867,11.2840254 C0.358518672,10.5640254 1.86722349e-05,9.69752538 1.86722349e-05,8.68402538 C-0.00298132777,7.66452538 0.355518672,6.79502538 1.07501867,6.07502538 C1.79501867,5.35802538 2.66301867,5.00002538 3.67951867,5.00002538 C4.69901867,4.99652538 5.56751867,5.35502538 6.28401867,6.07502538 C7.00401867,6.79502538 7.36401867,7.66452538 7.36401867,8.68402538 C7.36701867,9.70052538 7.00851867,10.5675254 6.28901867,11.2840254" id="Imported-Layers-Copy-16"></path>
            </g>
        </g>
    </g>
</svg>